<svg xmlns="http://www.w3.org/2000/svg" xmlns:xlink="http://www.w3.org/1999/xlink" width="1500" zoomAndPan="magnify" viewBox="0 0 1125 809.999993" height="1080" preserveAspectRatio="xMidYMid meet" version="1.0"><defs><g/><clipPath id="24caf617a0"><path d="M 191.804688 27.21875 L 933.554688 27.21875 L 933.554688 438 L 191.804688 438 Z M 191.804688 27.21875 " clip-rule="nonzero"/></clipPath><clipPath id="354afecc99"><path d="M 238 373 L 887 373 L 887 782.46875 L 238 782.46875 Z M 238 373 " clip-rule="nonzero"/></clipPath></defs><rect x="-112.5" width="1350" fill="#ffffff" y="-80.999999" height="971.999992" fill-opacity="1"/><rect x="-112.5" width="1350" fill="#ffffff" y="-80.999999" height="971.999992" fill-opacity="1"/><g clip-path="url(#24caf617a0)"><path fill="#e1c340" d="M 271.640625 332.433594 C 261.589844 298.96875 253.871094 264.070312 248.660156 228.566406 C 273.195312 224.929688 301.546875 217.140625 333.109375 205.351562 C 367.460938 192.511719 406.175781 174.8125 448.183594 152.722656 C 498.242188 126.398438 541.617188 99.71875 562.386719 86.574219 C 562.425781 86.601562 562.460938 86.625 562.496094 86.648438 C 562.53125 86.625 562.570312 86.601562 562.605469 86.574219 C 583.378906 99.71875 626.75 126.398438 676.808594 152.722656 C 718.816406 174.8125 757.53125 192.511719 791.886719 205.351562 C 823.449219 217.140625 851.800781 224.929688 876.335938 228.566406 C 871.121094 264.070312 863.402344 298.96875 853.351562 332.433594 C 842.527344 368.492188 828.722656 403.804688 812.308594 437.472656 C 906.480469 335.414062 933.191406 182.65625 933.191406 182.65625 L 905.164062 182.324219 C 860.722656 181.808594 790.34375 156.886719 701.640625 110.261719 C 632.953125 74.160156 577.6875 37.664062 577.140625 37.296875 L 562.605469 27.667969 L 562.496094 27.738281 L 562.386719 27.667969 L 547.855469 37.296875 C 547.304688 37.664062 492.039062 74.160156 423.355469 110.261719 C 334.648438 156.886719 264.269531 181.808594 219.832031 182.324219 L 191.804688 182.65625 C 191.804688 182.65625 218.511719 335.414062 312.683594 437.472656 C 296.273438 403.804688 282.472656 368.492188 271.640625 332.433594 " fill-opacity="1" fill-rule="nonzero"/></g><g clip-path="url(#354afecc99)"><path fill="#e1c340" d="M 562.605469 722.265625 C 562.570312 722.242188 562.53125 722.21875 562.496094 722.195312 C 562.460938 722.21875 562.425781 722.242188 562.386719 722.265625 C 401.746094 619.328125 264.644531 412.703125 238.394531 373.144531 C 247.363281 398.726562 257.558594 423.804688 268.875 448.113281 C 300.058594 515.0625 340.242188 577.457031 388.308594 633.566406 C 431.101562 683.523438 472.402344 719.183594 499.519531 740.3125 C 529.351562 763.558594 549.09375 774.894531 549.925781 775.363281 L 562.386719 782.480469 L 562.496094 782.414062 L 562.605469 782.480469 L 575.070312 775.363281 C 575.898438 774.894531 595.640625 763.558594 625.476562 740.3125 C 652.59375 719.183594 693.890625 683.523438 736.6875 633.566406 C 784.75 577.457031 824.933594 515.0625 856.117188 448.113281 C 867.4375 423.804688 877.628906 398.726562 886.601562 373.144531 C 860.347656 412.703125 723.25 619.328125 562.605469 722.265625 " fill-opacity="1" fill-rule="nonzero"/></g><path fill="#e1c340" d="M 653.582031 209.78125 L 637.269531 212.957031 C 642.398438 210.144531 647.789062 208.929688 653.582031 209.78125 Z M 688.070312 205.785156 C 687.449219 212.230469 682.734375 211.605469 683.28125 215.820312 C 684.597656 225.960938 685.453125 229.730469 681.175781 232.246094 C 673.640625 236.679688 681.269531 240.292969 672.972656 259.078125 C 670.445312 264.808594 668.664062 251.210938 668.015625 248.324219 C 656.324219 251.710938 657.363281 280.050781 653.539062 254.109375 C 648.488281 256.089844 642.972656 260.300781 639.097656 265.828125 C 633.179688 274.265625 635.75 280.179688 641.015625 287.089844 C 625.386719 294.582031 626.578125 291.652344 635.261719 297.640625 C 646.917969 282.863281 645.480469 284.308594 646.371094 284.4375 C 648.097656 293.0625 644.734375 296.667969 647.828125 297.902344 C 651.609375 299.414062 651.644531 299.53125 654.433594 296.5625 C 656.097656 294.792969 659.742188 290.625 662.09375 287.34375 C 665.78125 289.171875 659.34375 303.164062 660.101562 305.375 C 660.359375 306.125 665.089844 313.035156 658.515625 315.746094 C 650.945312 318.867188 644.539062 331.746094 624.492188 324.84375 C 619.238281 323.03125 619.261719 321.277344 616.292969 323.472656 C 566.976562 359.980469 578.890625 390.273438 580.613281 404.988281 C 564.585938 392.636719 553.5625 377.355469 552.113281 356.410156 C 546.164062 362.25 539.328125 377.59375 546.253906 393.230469 C 527.867188 377.667969 513.640625 358.105469 520.386719 334.984375 C 514.128906 338.5625 509.761719 351.402344 510.015625 364.628906 C 488.824219 337.082031 488.8125 315.949219 499.644531 300.480469 C 501.425781 297.933594 484.273438 304.796875 472.667969 325.417969 C 478.703125 277.625 513.359375 242.855469 540.136719 239.894531 C 546.734375 239.160156 526.074219 241.359375 506.285156 270.648438 C 503.101562 275.363281 500.542969 280.5 497.695312 285.449219 C 501.601562 289.34375 496.5625 272.792969 533.917969 267.597656 C 515.957031 283.78125 507.519531 304.316406 505.988281 328.109375 C 522.429688 299.148438 526.28125 301.222656 559.726562 294.34375 C 570.4375 292.136719 532.3125 304.253906 531 345.144531 C 530.3125 366.5 529.449219 344.617188 552.972656 322.996094 C 579.808594 298.324219 558.625 315.746094 558.914062 344.042969 C 566.179688 325.921875 579.285156 315.039062 598.339844 310.804688 C 619.109375 306.191406 627.503906 330.089844 646.695312 315.964844 C 630.042969 312.933594 624.289062 298.964844 613.804688 289.203125 C 603.457031 279.566406 600.871094 294.242188 597.5625 281.292969 C 588.46875 245.679688 630.335938 226.960938 669.285156 222.457031 C 669.285156 215.203125 669.5 214.824219 668.34375 214.199219 C 658.605469 208.972656 658.292969 202.074219 653.53125 201.9375 C 621.074219 201.011719 604.921875 237.847656 618.890625 210.078125 C 596.546875 222.46875 592.050781 236.507812 597.121094 221.464844 C 591.382812 223.214844 585.910156 221.851562 580.417969 221.644531 C 567.773438 221.171875 559.949219 227.773438 557.730469 228.382812 C 564.214844 220.136719 573.703125 216.289062 582.914062 211.515625 L 574.859375 209.253906 C 593.792969 205.402344 591.457031 204.964844 598.917969 207.867188 C 609.25 211.886719 602.851562 214.617188 618.632812 205.1875 C 591.367188 185.6875 559.648438 195.34375 533.261719 215.578125 C 529.246094 218.65625 524.070312 215.792969 511.664062 223.160156 C 509.695312 224.332031 510.070312 224.277344 509.597656 223.667969 C 522.328125 212.796875 528.605469 215.578125 470.589844 218.339844 C 479.066406 228.445312 508.695312 218.644531 479.8125 230.015625 C 494.394531 236.664062 511.746094 228.863281 488.84375 237.890625 C 500.46875 242.617188 499.894531 240.09375 489.617188 247.027344 C 496.03125 245.902344 502.441406 245.238281 508.9375 246.476562 C 495.152344 250.5625 480.980469 253.476562 468.339844 260.808594 C 474.402344 258.785156 480.527344 257.257812 487.601562 257.320312 C 471.816406 268.929688 459.546875 283.300781 451.75 301.871094 C 459 293.933594 468.136719 289.308594 478.503906 286.695312 C 448.328125 313.160156 443.53125 330.484375 440.8125 351.609375 C 435.578125 332.941406 437.3125 290.457031 461.148438 268.378906 C 457.996094 268.152344 452.507812 270.996094 445.980469 276.25 C 446.367188 271.9375 457.742188 255.226562 484.339844 243.996094 C 442.09375 205.777344 459.769531 213.171875 528.203125 210.308594 C 532.683594 210.121094 547.816406 193.695312 576.097656 189.363281 C 610.570312 184.078125 622.671875 204.832031 628.621094 201.71875 C 646.007812 192.621094 651.730469 198.242188 662.253906 194.296875 C 674.730469 189.625 676.011719 189.117188 686.398438 190.382812 C 688.855469 190.683594 689.328125 192.78125 688.070312 205.78125 Z M 601.730469 214.824219 C 594.988281 210.347656 589.34375 210.757812 584.410156 215.992188 C 589.742188 219.863281 597.597656 219.386719 601.730469 214.824219 Z M 604.511719 321.238281 C 589.875 315.988281 567.195312 334.136719 573.097656 363.726562 C 577.269531 344.667969 590.070312 332.523438 604.511719 321.238281 Z M 653.992188 231.300781 L 645.402344 234.59375 C 646.367188 239.738281 647.421875 244.617188 650.386719 249.332031 C 652.382812 243.210938 653.664062 237.507812 653.992188 231.296875 Z M 642.015625 221.570312 L 653.34375 216.28125 C 652.480469 214.503906 644.613281 218.867188 642.015625 221.570312 Z M 642.015625 221.570312 " fill-opacity="1" fill-rule="nonzero"/><g fill="#e1c340" fill-opacity="1"><g transform="translate(329.727828, 480.513816)"><g><path d="M 26 -7.78125 L 15.453125 -21.359375 L 10.734375 0 L 1.734375 0 L 10.734375 -40.1875 L 26 -20.4375 L 41.28125 -40.1875 L 50.28125 0 L 41.28125 0 L 36.5625 -21.359375 Z M 26 -7.78125 "/></g></g></g><g fill="#e1c340" fill-opacity="1"><g transform="translate(381.739845, 480.513816)"><g><path d="M 41.25 -38.3125 L 41.25 -30.78125 L 26 -30.78125 L 26 0 L 16.984375 0 L 16.984375 -30.78125 L 1.734375 -30.78125 L 1.734375 -38.3125 Z M 41.25 -38.3125 "/></g></g></g><g fill="#e1c340" fill-opacity="1"><g transform="translate(424.728865, 480.513816)"><g><path d="M 6.296875 -38.3125 L 39.03125 -38.3125 L 39.03125 -30.78125 L 10.75 -30.78125 L 10.75 -22.9375 L 36.734375 -22.9375 C 37.972656 -22.9375 39.039062 -22.484375 39.9375 -21.578125 C 40.832031 -20.671875 41.28125 -19.597656 41.28125 -18.359375 L 41.28125 -4.546875 C 41.28125 -3.296875 40.832031 -2.222656 39.9375 -1.328125 C 39.039062 -0.441406 37.972656 0 36.734375 0 L 1.734375 0 L 1.734375 -7.546875 L 32.265625 -7.546875 L 32.265625 -15.40625 L 6.296875 -15.40625 C 5.046875 -15.40625 3.972656 -15.847656 3.078125 -16.734375 C 2.179688 -17.617188 1.734375 -18.691406 1.734375 -19.953125 L 1.734375 -33.765625 C 1.734375 -35.003906 2.179688 -36.070312 3.078125 -36.96875 C 3.972656 -37.863281 5.046875 -38.3125 6.296875 -38.3125 Z M 6.296875 -38.3125 "/></g></g></g><g fill="#e1c340" fill-opacity="1"><g transform="translate(467.742605, 480.513816)"><g/></g></g><g fill="#e1c340" fill-opacity="1"><g transform="translate(480.102875, 480.513816)"><g><path d="M 6.296875 -38.3125 L 39.03125 -38.3125 L 39.03125 -30.78125 L 10.75 -30.78125 L 10.75 -22.9375 L 36.734375 -22.9375 C 37.972656 -22.9375 39.039062 -22.484375 39.9375 -21.578125 C 40.832031 -20.671875 41.28125 -19.597656 41.28125 -18.359375 L 41.28125 -4.546875 C 41.28125 -3.296875 40.832031 -2.222656 39.9375 -1.328125 C 39.039062 -0.441406 37.972656 0 36.734375 0 L 1.734375 0 L 1.734375 -7.546875 L 32.265625 -7.546875 L 32.265625 -15.40625 L 6.296875 -15.40625 C 5.046875 -15.40625 3.972656 -15.847656 3.078125 -16.734375 C 2.179688 -17.617188 1.734375 -18.691406 1.734375 -19.953125 L 1.734375 -33.765625 C 1.734375 -35.003906 2.179688 -36.070312 3.078125 -36.96875 C 3.972656 -37.863281 5.046875 -38.3125 6.296875 -38.3125 Z M 6.296875 -38.3125 "/></g></g></g><g fill="#e1c340" fill-opacity="1"><g transform="translate(523.116616, 480.513816)"><g><path d="M 32.265625 -15.40625 L 10.75 -15.40625 L 10.75 -7.546875 L 41.28125 -7.546875 L 41.28125 0 L 1.734375 0 L 1.734375 -38.3125 L 41.28125 -38.3125 L 41.28125 -30.78125 L 10.75 -30.78125 L 10.75 -22.9375 L 32.265625 -22.9375 Z M 32.265625 -15.40625 "/></g></g></g><g fill="#e1c340" fill-opacity="1"><g transform="translate(566.130342, 480.513816)"><g><path d="M 6.28125 -38.3125 L 41.25 -38.3125 L 41.25 -30.78125 L 10.75 -30.78125 L 10.75 -7.546875 L 41.25 -7.546875 L 41.25 0 L 6.28125 0 C 5.03125 0 3.957031 -0.441406 3.0625 -1.328125 C 2.175781 -2.222656 1.734375 -3.296875 1.734375 -4.546875 L 1.734375 -33.765625 C 1.734375 -35.003906 2.175781 -36.070312 3.0625 -36.96875 C 3.957031 -37.863281 5.03125 -38.3125 6.28125 -38.3125 Z M 6.28125 -38.3125 "/></g></g></g><g fill="#e1c340" fill-opacity="1"><g transform="translate(609.119349, 480.513816)"><g><path d="M 32.265625 -38.3125 L 41.25 -38.3125 L 41.25 -4.546875 C 41.25 -3.296875 40.804688 -2.222656 39.921875 -1.328125 C 39.035156 -0.441406 37.960938 0 36.703125 0 L 6.28125 0 C 5.03125 0 3.957031 -0.441406 3.0625 -1.328125 C 2.175781 -2.222656 1.734375 -3.296875 1.734375 -4.546875 L 1.734375 -38.3125 L 10.734375 -38.3125 L 10.734375 -7.546875 L 32.265625 -7.546875 Z M 32.265625 -38.3125 "/></g></g></g><g fill="#e1c340" fill-opacity="1"><g transform="translate(652.108355, 480.513816)"><g><path d="M 36.703125 -38.3125 C 37.941406 -38.3125 39.015625 -37.863281 39.921875 -36.96875 C 40.828125 -36.070312 41.28125 -35.003906 41.28125 -33.765625 L 41.28125 -16.1875 C 41.28125 -14.914062 40.828125 -13.835938 39.921875 -12.953125 C 39.015625 -12.078125 37.941406 -11.640625 36.703125 -11.640625 L 35.921875 -11.640625 L 42.984375 0 L 32.453125 0 L 25.390625 -11.640625 L 10.734375 -11.640625 L 10.734375 0 L 1.734375 0 L 1.734375 -38.3125 Z M 32.265625 -19.15625 L 32.265625 -30.78125 L 10.734375 -30.78125 L 10.734375 -19.15625 Z M 32.265625 -19.15625 "/></g></g></g><g fill="#e1c340" fill-opacity="1"><g transform="translate(696.827826, 480.513816)"><g><path d="M 1.734375 0 L 1.734375 -38.3125 L 10.734375 -38.3125 L 10.734375 0 Z M 1.734375 0 "/></g></g></g><g fill="#e1c340" fill-opacity="1"><g transform="translate(709.286978, 480.513816)"><g><path d="M 41.25 -38.3125 L 41.25 -30.78125 L 26 -30.78125 L 26 0 L 16.984375 0 L 16.984375 -30.78125 L 1.734375 -30.78125 L 1.734375 -38.3125 Z M 41.25 -38.3125 "/></g></g></g><g fill="#e1c340" fill-opacity="1"><g transform="translate(752.275984, 480.513816)"><g><path d="M 1.734375 -38.3125 L 11.859375 -38.3125 L 21.4375 -25.859375 L 31.125 -38.3125 L 41.25 -38.3125 L 25.9375 -18.3125 L 25.9375 0 L 16.90625 0 L 16.90625 -18.546875 Z M 1.734375 -38.3125 "/></g></g></g><g fill="#e1c340" fill-opacity="1"><g transform="translate(411.636968, 550.323045)"><g><path d="M 19.96875 0 L 15.765625 0 C 15.503906 -0.289062 15.242188 -0.582031 14.984375 -0.875 C 14.722656 -1.164062 14.457031 -1.453125 14.1875 -1.734375 C 13.289062 -1.066406 12.332031 -0.539062 11.3125 -0.15625 C 10.300781 0.226562 9.28125 0.421875 8.25 0.421875 C 7.269531 0.421875 6.347656 0.28125 5.484375 0 C 4.617188 -0.28125 3.859375 -0.675781 3.203125 -1.1875 C 2.554688 -1.695312 2.046875 -2.304688 1.671875 -3.015625 C 1.304688 -3.734375 1.125 -4.519531 1.125 -5.375 C 1.125 -6.132812 1.257812 -6.804688 1.53125 -7.390625 C 1.800781 -7.972656 2.160156 -8.488281 2.609375 -8.9375 C 3.054688 -9.382812 3.546875 -9.78125 4.078125 -10.125 C 4.609375 -10.476562 5.140625 -10.804688 5.671875 -11.109375 C 5.304688 -11.421875 4.945312 -11.796875 4.59375 -12.234375 C 4.238281 -12.671875 3.941406 -13.15625 3.703125 -13.6875 C 3.472656 -14.226562 3.359375 -14.800781 3.359375 -15.40625 C 3.359375 -16.332031 3.597656 -17.140625 4.078125 -17.828125 C 4.554688 -18.523438 5.210938 -19.066406 6.046875 -19.453125 C 6.890625 -19.847656 7.851562 -20.039062 8.9375 -20.03125 C 10.0625 -20.03125 11.046875 -19.847656 11.890625 -19.484375 C 12.734375 -19.117188 13.382812 -18.585938 13.84375 -17.890625 C 14.3125 -17.203125 14.546875 -16.367188 14.546875 -15.390625 C 14.546875 -14.648438 14.363281 -13.976562 14 -13.375 C 13.644531 -12.769531 13.171875 -12.226562 12.578125 -11.75 C 11.992188 -11.28125 11.359375 -10.859375 10.671875 -10.484375 L 14.59375 -6.140625 C 14.976562 -6.679688 15.289062 -7.257812 15.53125 -7.875 C 15.78125 -8.488281 15.9375 -9.125 16 -9.78125 L 19.1875 -9.765625 C 19.113281 -8.648438 18.847656 -7.582031 18.390625 -6.5625 C 17.941406 -5.550781 17.359375 -4.625 16.640625 -3.78125 C 17.191406 -3.144531 17.742188 -2.515625 18.296875 -1.890625 C 18.859375 -1.265625 19.414062 -0.632812 19.96875 0 Z M 8.359375 -12.40625 C 8.640625 -12.539062 8.9375 -12.691406 9.25 -12.859375 C 9.5625 -13.023438 9.851562 -13.21875 10.125 -13.4375 C 10.394531 -13.664062 10.617188 -13.9375 10.796875 -14.25 C 10.972656 -14.5625 11.0625 -14.925781 11.0625 -15.34375 C 11.0625 -15.90625 10.878906 -16.363281 10.515625 -16.71875 C 10.160156 -17.082031 9.675781 -17.265625 9.0625 -17.265625 C 8.582031 -17.265625 8.175781 -17.160156 7.84375 -16.953125 C 7.519531 -16.753906 7.273438 -16.492188 7.109375 -16.171875 C 6.941406 -15.847656 6.859375 -15.488281 6.859375 -15.09375 C 6.859375 -14.75 6.9375 -14.414062 7.09375 -14.09375 C 7.25 -13.78125 7.441406 -13.484375 7.671875 -13.203125 C 7.910156 -12.921875 8.140625 -12.65625 8.359375 -12.40625 Z M 8.140625 -2.53125 C 8.878906 -2.53125 9.59375 -2.660156 10.28125 -2.921875 C 10.96875 -3.179688 11.59375 -3.539062 12.15625 -4 C 11.394531 -4.84375 10.640625 -5.679688 9.890625 -6.515625 C 9.140625 -7.347656 8.378906 -8.179688 7.609375 -9.015625 C 7.265625 -8.828125 6.914062 -8.625 6.5625 -8.40625 C 6.21875 -8.1875 5.894531 -7.9375 5.59375 -7.65625 C 5.300781 -7.375 5.066406 -7.054688 4.890625 -6.703125 C 4.710938 -6.347656 4.625 -5.941406 4.625 -5.484375 C 4.625 -4.867188 4.785156 -4.335938 5.109375 -3.890625 C 5.429688 -3.453125 5.859375 -3.113281 6.390625 -2.875 C 6.929688 -2.644531 7.515625 -2.53125 8.140625 -2.53125 Z M 8.140625 -2.53125 "/></g></g></g><g fill="#e1c340" fill-opacity="1"><g transform="translate(432.944962, 550.323045)"><g><path d="M 9.90625 0 L 2.328125 0 L 2.328125 -19.5625 L 9.875 -19.5625 C 11.4375 -19.5625 12.851562 -19.328125 14.125 -18.859375 C 15.40625 -18.398438 16.503906 -17.738281 17.421875 -16.875 C 18.335938 -16.007812 19.039062 -14.976562 19.53125 -13.78125 C 20.03125 -12.59375 20.28125 -11.265625 20.28125 -9.796875 C 20.28125 -8.328125 20.03125 -6.988281 19.53125 -5.78125 C 19.039062 -4.582031 18.335938 -3.550781 17.421875 -2.6875 C 16.515625 -1.820312 15.425781 -1.15625 14.15625 -0.6875 C 12.882812 -0.226562 11.46875 0 9.90625 0 Z M 5.859375 -16.390625 L 5.859375 -3.1875 L 9.796875 -3.1875 C 11.222656 -3.1875 12.445312 -3.453125 13.46875 -3.984375 C 14.5 -4.523438 15.285156 -5.285156 15.828125 -6.265625 C 16.378906 -7.242188 16.65625 -8.398438 16.65625 -9.734375 C 16.65625 -11.066406 16.382812 -12.234375 15.84375 -13.234375 C 15.3125 -14.234375 14.53125 -15.007812 13.5 -15.5625 C 12.476562 -16.113281 11.234375 -16.390625 9.765625 -16.390625 Z M 5.859375 -16.390625 "/></g></g></g><g fill="#e1c340" fill-opacity="1"><g transform="translate(454.181014, 550.323045)"><g><path d="M 5.90625 0 L 2.328125 0 L 2.328125 -19.5625 L 5.90625 -19.5625 Z M 5.90625 0 "/></g></g></g><g fill="#e1c340" fill-opacity="1"><g transform="translate(462.410704, 550.323045)"><g><path d="M 15.875 0 L 2.328125 0 L 2.328125 -19.5625 L 15.734375 -19.5625 L 15.734375 -16.359375 L 5.90625 -16.359375 L 5.90625 -11.453125 L 14.40625 -11.453125 L 14.40625 -8.4375 L 5.90625 -8.4375 L 5.90625 -3.203125 L 15.875 -3.203125 Z M 15.875 0 "/></g></g></g><g fill="#e1c340" fill-opacity="1"><g transform="translate(479.215385, 550.323045)"><g><path d="M 5.90625 0 L 2.328125 0 L 2.328125 -19.5625 L 5.40625 -19.5625 L 16.078125 -5.875 L 16.078125 -19.5625 L 19.640625 -19.5625 L 19.640625 0 L 16.578125 0 L 5.90625 -13.6875 Z M 5.90625 0 "/></g></g></g><g fill="#e1c340" fill-opacity="1"><g transform="translate(501.185207, 550.323045)"><g><path d="M 8.9375 0.453125 C 7.53125 0.453125 6.320312 0.269531 5.3125 -0.09375 C 4.300781 -0.457031 3.476562 -0.941406 2.84375 -1.546875 C 2.207031 -2.160156 1.738281 -2.84375 1.4375 -3.59375 C 1.132812 -4.34375 0.984375 -5.101562 0.984375 -5.875 L 4.5625 -5.875 C 4.5625 -5.269531 4.726562 -4.71875 5.0625 -4.21875 C 5.40625 -3.71875 5.90625 -3.316406 6.5625 -3.015625 C 7.21875 -2.722656 8.003906 -2.578125 8.921875 -2.578125 C 11.828125 -2.578125 13.28125 -3.550781 13.28125 -5.5 C 13.28125 -6.101562 13.09375 -6.59375 12.71875 -6.96875 C 12.34375 -7.351562 11.816406 -7.660156 11.140625 -7.890625 C 10.472656 -8.128906 9.6875 -8.332031 8.78125 -8.5 C 8.125 -8.632812 7.453125 -8.796875 6.765625 -8.984375 C 6.078125 -9.179688 5.421875 -9.421875 4.796875 -9.703125 C 4.171875 -9.992188 3.609375 -10.347656 3.109375 -10.765625 C 2.609375 -11.191406 2.210938 -11.703125 1.921875 -12.296875 C 1.628906 -12.890625 1.484375 -13.597656 1.484375 -14.421875 C 1.484375 -15.484375 1.738281 -16.4375 2.25 -17.28125 C 2.757812 -18.125 3.554688 -18.789062 4.640625 -19.28125 C 5.734375 -19.78125 7.125 -20.03125 8.8125 -20.03125 C 10.4375 -20.03125 11.789062 -19.785156 12.875 -19.296875 C 13.96875 -18.804688 14.789062 -18.117188 15.34375 -17.234375 C 15.894531 -16.359375 16.171875 -15.332031 16.171875 -14.15625 L 12.59375 -14.15625 C 12.59375 -14.664062 12.457031 -15.125 12.1875 -15.53125 C 11.914062 -15.945312 11.5 -16.273438 10.9375 -16.515625 C 10.375 -16.765625 9.648438 -16.890625 8.765625 -16.890625 C 8.023438 -16.890625 7.414062 -16.816406 6.9375 -16.671875 C 6.457031 -16.535156 6.078125 -16.347656 5.796875 -16.109375 C 5.523438 -15.867188 5.332031 -15.597656 5.21875 -15.296875 C 5.113281 -15.003906 5.0625 -14.707031 5.0625 -14.40625 C 5.0625 -13.59375 5.46875 -12.96875 6.28125 -12.53125 C 7.101562 -12.101562 8.332031 -11.753906 9.96875 -11.484375 C 10.875 -11.316406 11.738281 -11.09375 12.5625 -10.8125 C 13.394531 -10.53125 14.132812 -10.160156 14.78125 -9.703125 C 15.4375 -9.242188 15.953125 -8.671875 16.328125 -7.984375 C 16.710938 -7.296875 16.90625 -6.460938 16.90625 -5.484375 C 16.90625 -4.210938 16.578125 -3.132812 15.921875 -2.25 C 15.265625 -1.375 14.335938 -0.703125 13.140625 -0.234375 C 11.953125 0.222656 10.550781 0.453125 8.9375 0.453125 Z M 8.9375 0.453125 "/></g></g></g><g fill="#e1c340" fill-opacity="1"><g transform="translate(518.781201, 550.323045)"><g><path d="M 10.015625 0 L 6.453125 0 L 6.453125 -16.375 L 0.625 -16.375 L 0.625 -19.5625 L 15.84375 -19.5625 L 15.84375 -16.375 L 10.015625 -16.375 Z M 10.015625 0 "/></g></g></g><g fill="#e1c340" fill-opacity="1"><g transform="translate(535.24058, 550.323045)"><g><path d="M 14.75 0 L 2.328125 0 L 2.328125 -19.5625 L 5.90625 -19.5625 L 5.90625 -3.203125 L 14.75 -3.203125 Z M 14.75 0 "/></g></g></g><g fill="#e1c340" fill-opacity="1"><g transform="translate(550.563338, 550.323045)"><g><path d="M 15.875 0 L 2.328125 0 L 2.328125 -19.5625 L 15.734375 -19.5625 L 15.734375 -16.359375 L 5.90625 -16.359375 L 5.90625 -11.453125 L 14.40625 -11.453125 L 14.40625 -8.4375 L 5.90625 -8.4375 L 5.90625 -3.203125 L 15.875 -3.203125 Z M 15.875 0 "/></g></g></g><g fill="#e1c340" fill-opacity="1"><g transform="translate(567.36802, 550.323045)"><g><path d="M 5.90625 0 L 2.328125 0 L 2.328125 -19.5625 L 5.90625 -19.5625 Z M 5.90625 0 "/></g></g></g><g fill="#e1c340" fill-opacity="1"><g transform="translate(575.597709, 550.323045)"><g><path d="M 8.9375 0.453125 C 7.53125 0.453125 6.320312 0.269531 5.3125 -0.09375 C 4.300781 -0.457031 3.476562 -0.941406 2.84375 -1.546875 C 2.207031 -2.160156 1.738281 -2.84375 1.4375 -3.59375 C 1.132812 -4.34375 0.984375 -5.101562 0.984375 -5.875 L 4.5625 -5.875 C 4.5625 -5.269531 4.726562 -4.71875 5.0625 -4.21875 C 5.40625 -3.71875 5.90625 -3.316406 6.5625 -3.015625 C 7.21875 -2.722656 8.003906 -2.578125 8.921875 -2.578125 C 11.828125 -2.578125 13.28125 -3.550781 13.28125 -5.5 C 13.28125 -6.101562 13.09375 -6.59375 12.71875 -6.96875 C 12.34375 -7.351562 11.816406 -7.660156 11.140625 -7.890625 C 10.472656 -8.128906 9.6875 -8.332031 8.78125 -8.5 C 8.125 -8.632812 7.453125 -8.796875 6.765625 -8.984375 C 6.078125 -9.179688 5.421875 -9.421875 4.796875 -9.703125 C 4.171875 -9.992188 3.609375 -10.347656 3.109375 -10.765625 C 2.609375 -11.191406 2.210938 -11.703125 1.921875 -12.296875 C 1.628906 -12.890625 1.484375 -13.597656 1.484375 -14.421875 C 1.484375 -15.484375 1.738281 -16.4375 2.25 -17.28125 C 2.757812 -18.125 3.554688 -18.789062 4.640625 -19.28125 C 5.734375 -19.78125 7.125 -20.03125 8.8125 -20.03125 C 10.4375 -20.03125 11.789062 -19.785156 12.875 -19.296875 C 13.96875 -18.804688 14.789062 -18.117188 15.34375 -17.234375 C 15.894531 -16.359375 16.171875 -15.332031 16.171875 -14.15625 L 12.59375 -14.15625 C 12.59375 -14.664062 12.457031 -15.125 12.1875 -15.53125 C 11.914062 -15.945312 11.5 -16.273438 10.9375 -16.515625 C 10.375 -16.765625 9.648438 -16.890625 8.765625 -16.890625 C 8.023438 -16.890625 7.414062 -16.816406 6.9375 -16.671875 C 6.457031 -16.535156 6.078125 -16.347656 5.796875 -16.109375 C 5.523438 -15.867188 5.332031 -15.597656 5.21875 -15.296875 C 5.113281 -15.003906 5.0625 -14.707031 5.0625 -14.40625 C 5.0625 -13.59375 5.46875 -12.96875 6.28125 -12.53125 C 7.101562 -12.101562 8.332031 -11.753906 9.96875 -11.484375 C 10.875 -11.316406 11.738281 -11.09375 12.5625 -10.8125 C 13.394531 -10.53125 14.132812 -10.160156 14.78125 -9.703125 C 15.4375 -9.242188 15.953125 -8.671875 16.328125 -7.984375 C 16.710938 -7.296875 16.90625 -6.460938 16.90625 -5.484375 C 16.90625 -4.210938 16.578125 -3.132812 15.921875 -2.25 C 15.265625 -1.375 14.335938 -0.703125 13.140625 -0.234375 C 11.953125 0.222656 10.550781 0.453125 8.9375 0.453125 Z M 8.9375 0.453125 "/></g></g></g><g fill="#e1c340" fill-opacity="1"><g transform="translate(593.19371, 550.323045)"><g><path d="M 10.015625 0 L 6.453125 0 L 6.453125 -16.375 L 0.625 -16.375 L 0.625 -19.5625 L 15.84375 -19.5625 L 15.84375 -16.375 L 10.015625 -16.375 Z M 10.015625 0 "/></g></g></g><g fill="#e1c340" fill-opacity="1"><g transform="translate(609.653089, 550.323045)"><g><path d="M 10.34375 0.4375 C 9.164062 0.4375 8.070312 0.25 7.0625 -0.125 C 6.050781 -0.5 5.160156 -1.035156 4.390625 -1.734375 C 3.628906 -2.429688 3.035156 -3.269531 2.609375 -4.25 C 2.191406 -5.238281 1.984375 -6.34375 1.984375 -7.5625 L 1.984375 -19.5625 L 5.546875 -19.5625 L 5.546875 -7.828125 C 5.546875 -6.910156 5.726562 -6.070312 6.09375 -5.3125 C 6.46875 -4.5625 7.015625 -3.960938 7.734375 -3.515625 C 8.453125 -3.066406 9.320312 -2.84375 10.34375 -2.84375 C 11.351562 -2.84375 12.210938 -3.0625 12.921875 -3.5 C 13.628906 -3.945312 14.171875 -4.546875 14.546875 -5.296875 C 14.929688 -6.054688 15.125 -6.894531 15.125 -7.8125 L 15.125 -19.5625 L 18.703125 -19.5625 L 18.703125 -7.5625 C 18.703125 -6.394531 18.5 -5.320312 18.09375 -4.34375 C 17.695312 -3.375 17.128906 -2.53125 16.390625 -1.8125 C 15.648438 -1.101562 14.765625 -0.550781 13.734375 -0.15625 C 12.710938 0.238281 11.582031 0.4375 10.34375 0.4375 Z M 10.34375 0.4375 "/></g></g></g><g fill="#e1c340" fill-opacity="1"><g transform="translate(630.328023, 550.323045)"><g><path d="M 5.90625 0 L 2.328125 0 L 2.328125 -19.5625 L 5.40625 -19.5625 L 16.078125 -5.875 L 16.078125 -19.5625 L 19.640625 -19.5625 L 19.640625 0 L 16.578125 0 L 5.90625 -13.6875 Z M 5.90625 0 "/></g></g></g><g fill="#e1c340" fill-opacity="1"><g transform="translate(652.297832, 550.323045)"><g><path d="M 11.28125 0.421875 C 10.132812 0.421875 9.046875 0.25 8.015625 -0.09375 C 6.984375 -0.445312 6.039062 -0.929688 5.1875 -1.546875 C 4.332031 -2.171875 3.585938 -2.90625 2.953125 -3.75 C 2.316406 -4.601562 1.828125 -5.539062 1.484375 -6.5625 C 1.140625 -7.582031 0.96875 -8.660156 0.96875 -9.796875 C 0.96875 -10.941406 1.140625 -12.023438 1.484375 -13.046875 C 1.828125 -14.078125 2.316406 -15.015625 2.953125 -15.859375 C 3.585938 -16.710938 4.335938 -17.453125 5.203125 -18.078125 C 6.066406 -18.703125 7.015625 -19.179688 8.046875 -19.515625 C 9.085938 -19.859375 10.1875 -20.03125 11.34375 -20.03125 C 12.164062 -20.03125 12.992188 -19.929688 13.828125 -19.734375 C 14.660156 -19.535156 15.457031 -19.242188 16.21875 -18.859375 C 16.988281 -18.472656 17.6875 -18 18.3125 -17.4375 C 18.945312 -16.882812 19.488281 -16.242188 19.9375 -15.515625 C 20.382812 -14.796875 20.695312 -13.992188 20.875 -13.109375 L 17.234375 -13.109375 C 16.722656 -14.253906 15.945312 -15.144531 14.90625 -15.78125 C 13.863281 -16.425781 12.644531 -16.75 11.25 -16.75 C 10.332031 -16.75 9.460938 -16.582031 8.640625 -16.25 C 7.828125 -15.914062 7.113281 -15.441406 6.5 -14.828125 C 5.882812 -14.222656 5.398438 -13.492188 5.046875 -12.640625 C 4.703125 -11.796875 4.53125 -10.847656 4.53125 -9.796875 C 4.53125 -8.734375 4.703125 -7.773438 5.046875 -6.921875 C 5.398438 -6.078125 5.882812 -5.351562 6.5 -4.75 C 7.113281 -4.144531 7.828125 -3.679688 8.640625 -3.359375 C 9.460938 -3.035156 10.332031 -2.875 11.25 -2.875 C 12.414062 -2.875 13.425781 -3.070312 14.28125 -3.46875 C 15.132812 -3.875 15.828125 -4.425781 16.359375 -5.125 C 16.898438 -5.820312 17.257812 -6.628906 17.4375 -7.546875 L 11.109375 -7.546875 L 11.109375 -10.53125 L 21.328125 -10.53125 C 21.335938 -8.925781 21.117188 -7.453125 20.671875 -6.109375 C 20.234375 -4.773438 19.582031 -3.617188 18.71875 -2.640625 C 17.851562 -1.671875 16.796875 -0.914062 15.546875 -0.375 C 14.304688 0.15625 12.882812 0.421875 11.28125 0.421875 Z M 11.28125 0.421875 "/></g></g></g><g fill="#e1c340" fill-opacity="1"><g transform="translate(674.584174, 550.323045)"><g><path d="M 15.875 0 L 2.328125 0 L 2.328125 -19.5625 L 15.734375 -19.5625 L 15.734375 -16.359375 L 5.90625 -16.359375 L 5.90625 -11.453125 L 14.40625 -11.453125 L 14.40625 -8.4375 L 5.90625 -8.4375 L 5.90625 -3.203125 L 15.875 -3.203125 Z M 15.875 0 "/></g></g></g><g fill="#e1c340" fill-opacity="1"><g transform="translate(691.388855, 550.323045)"><g><path d="M 5.90625 0 L 2.328125 0 L 2.328125 -19.5625 L 5.40625 -19.5625 L 16.078125 -5.875 L 16.078125 -19.5625 L 19.640625 -19.5625 L 19.640625 0 L 16.578125 0 L 5.90625 -13.6875 Z M 5.90625 0 "/></g></g></g></svg>